Coordinates
version=1
nRows=65
nColumns=12
inDegrees=yes

Units are S.I. units (second, meters, Newtons, ...)
Angles are in degrees

endheader
time	SC_y	SC_z	SC_x	AC_y	AC_z	AC_x	GH_y	GH_z	GH_yy	EL_x	PS_y
       0.0              -50.26          6.385          36.61          51.12         -10.39         -8.563          -5.19          79.54         -26.33          64.69          151.9
   0.03536              -50.25          6.386          36.61          51.11         -10.39         -8.565         -5.194          79.53         -26.31          64.69          151.9
   0.07073              -50.25          6.387          36.61          51.11         -10.39         -8.566         -5.197          79.52         -26.29           64.7          151.9
    0.1061              -50.24          6.388          36.61          51.11         -10.38         -8.568         -5.201           79.5         -26.26          64.71          151.8
    0.1415              -50.24          6.388          36.61          51.11         -10.38         -8.569         -5.205          79.49         -26.24          64.72          151.8
    0.1768              -50.23          6.389          36.61           51.1         -10.38         -8.571         -5.209          79.47         -26.21          64.73          151.8
    0.2122              -50.23           6.39          36.61           51.1         -10.37         -8.573         -5.214          79.46         -26.18          64.74          151.8
    0.2476              -50.22          6.392          36.61           51.1         -10.37         -8.575         -5.219          79.44         -26.14          64.75          151.8
    0.2829              -50.21          6.393          36.61          51.09         -10.36         -8.577         -5.224          79.42         -26.11          64.76          151.8
    0.3183              -50.21          6.394          36.61          51.09         -10.36          -8.58          -5.23           79.4         -26.07          64.77          151.8
    0.3536               -50.2          6.395          36.61          51.08         -10.35         -8.582         -5.236          79.38         -26.03          64.78          151.8
     0.389              -50.19          6.397          36.61          51.08         -10.35         -8.585         -5.243          79.36         -25.99           64.8          151.8
    0.4244              -50.18          6.398          36.61          51.07         -10.34         -8.588          -5.25          79.33         -25.95          64.81          151.7
    0.4597              -50.17            6.4          36.61          51.07         -10.34         -8.591         -5.257           79.3          -25.9          64.83          151.7
    0.4951              -50.16          6.402          36.61          51.06         -10.33         -8.595         -5.266          79.27         -25.84          64.85          151.7
    0.5305              -50.15          6.404          36.61          51.05         -10.32         -8.599         -5.275          79.24         -25.78          64.86          151.7
    0.5658              -50.14          6.406          36.61          51.05         -10.31         -8.603         -5.285          79.21         -25.72          64.88          151.7
    0.6012              -50.12          6.409          36.61          51.04         -10.31         -8.607         -5.295          79.17         -25.65          64.91          151.6
    0.6366              -50.11          6.411           36.6          51.03          -10.3         -8.612         -5.307          79.13         -25.58          64.93          151.6
    0.6719              -50.09          6.414           36.6          51.02         -10.29         -8.617          -5.32          79.08         -25.49          64.96          151.6
    0.7073              -50.08          6.417           36.6          51.01         -10.28         -8.623         -5.333          79.03          -25.4          64.99          151.5
    0.7427              -50.06           6.42           36.6           51.0         -10.26          -8.63         -5.349          78.98          -25.3          65.02          151.5
     0.778              -50.03          6.424           36.6          50.99         -10.25         -8.637         -5.366          78.92         -25.19          65.05          151.5
    0.8134              -50.01          6.428           36.6          50.97         -10.23         -8.645         -5.385          78.85         -25.07          65.09          151.4
    0.8488              -49.98          6.433           36.6          50.96         -10.22         -8.653         -5.406          78.78         -24.93          65.14          151.4
    0.8841              -49.96          6.438           36.6          50.94          -10.2         -8.663         -5.429          78.69         -24.78          65.19          151.3
    0.9195              -49.92          6.444           36.6          50.92         -10.18         -8.674         -5.455           78.6         -24.61          65.24          151.3
    0.9548              -49.89          6.451           36.6           50.9         -10.15         -8.686         -5.485           78.5         -24.42           65.3          151.2
    0.9902              -49.84          6.458           36.6          50.88         -10.13           -8.7         -5.518          78.38         -24.21          65.37          151.1
     1.026               -49.8          6.467           36.6          50.85         -10.09         -8.716         -5.556          78.24         -23.96          65.45          151.0
     1.061              -49.74          6.476           36.6          50.82         -10.06         -8.734         -5.599          78.09         -23.68          65.54          151.0
     1.096              -49.68          6.487          36.59          50.78         -10.02         -8.755         -5.648          77.92         -23.36          65.64          150.8
     1.132              -49.61            6.5          36.59          50.74         -9.973         -8.779         -5.705          77.71         -22.99          65.76          150.7
     1.167              -49.52          6.515          36.59          50.69         -9.919         -8.807         -5.771          77.48         -22.56           65.9          150.6
     1.202              -49.43          6.532          36.59          50.63         -9.855         -8.839         -5.849           77.2         -22.06          66.06          150.4
     1.238              -49.31          6.552          36.58          50.57         -9.781         -8.878         -5.941          76.88         -21.46          66.25          150.2
     1.273              -49.17          6.577          36.58          50.49         -9.693         -8.923         -6.049          76.49         -20.76          66.48          149.9
     1.308              -49.01          6.606          36.58          50.39         -9.586         -8.978          -6.18          76.03         -19.91          66.75          149.6
     1.344              -48.81          6.641          36.57          50.28         -9.458         -9.044         -6.337          75.47         -18.89          67.08          149.3
     1.379              -48.57          6.684          36.56          50.14         -9.301         -9.125          -6.53          74.78         -17.64          67.48          148.9
     1.415              -48.27          6.737          36.56          49.96         -9.108         -9.224         -6.768          73.94          -16.1          67.98          148.3
      1.45               -47.9          6.803          36.54          49.75         -8.867         -9.349         -7.064          72.89         -14.18           68.6          147.6
     1.485              -47.43          6.886          36.53          49.47         -8.563         -9.505         -7.437          71.56         -11.75          69.38          146.8
     1.521              -46.83          6.992          36.52          49.13         -8.176         -9.704         -7.912          69.88         -8.673          70.37          145.7
     1.556              -46.07          7.127           36.5          48.68         -7.682         -9.959          -8.52          67.72         -4.731          71.64          144.4
     1.591              -45.09          7.301          36.47          48.11         -7.047         -10.29           -9.3          64.95         0.3275          73.27          142.6
     1.627              -43.83          7.523          36.43          47.39         -6.237          -10.7          -10.3          61.41          6.789          75.35          140.4
     1.662              -42.26          7.802          36.39          46.47         -5.218         -11.23         -11.55          56.97          14.91          77.96          137.5
     1.698              -40.34          8.143          36.34          45.35         -3.976         -11.87         -13.07          51.55          24.81          81.15          134.1
     1.733              -38.11          8.537          36.28          44.06         -2.536         -12.61         -14.84          45.26          36.29          84.84          130.1
     1.768               -35.7          8.964          36.21          42.66         -0.977         -13.41         -16.76          38.46          48.72          88.84          125.8
     1.804              -33.29          9.391          36.15          41.26         0.5818         -14.22         -18.67          31.66          61.14          92.84          121.5
     1.839              -31.07          9.785          36.09          39.97          2.021         -14.96         -20.44          25.38          72.62          96.54          117.5
     1.874              -29.15          10.13          36.04          38.85          3.263          -15.6         -21.97          19.96          82.52          99.72          114.1
      1.91              -27.57           10.4          35.99          37.94          4.283         -16.12         -23.22          15.51          90.65          102.3          111.2
     1.945              -26.32          10.63          35.96          37.21          5.093         -16.54         -24.22          11.98          97.11          104.4          109.0
      1.98              -25.34           10.8          35.93          36.64          5.728         -16.87          -25.0          9.207          102.2          106.0          107.2
     2.016              -24.57          10.94          35.91           36.2          6.222         -17.12          -25.6           7.05          106.1          107.3          105.9
     2.051              -23.98          11.04           35.9          35.85          6.609         -17.32         -26.08          5.364          109.2          108.3          104.8
     2.087              -23.51          11.13          35.88          35.58          6.913         -17.48         -26.45          4.038          111.6          109.1          103.9
     2.122              -23.13          11.19          35.87          35.36          7.154          -17.6         -26.75          2.985          113.5          109.7          103.3
     2.157              -22.83          11.24          35.86          35.19          7.347          -17.7         -26.99          2.141          115.1          110.2          102.7
     2.193              -22.59          11.29          35.86          35.05          7.504         -17.78         -27.18          1.457          116.3          110.6          102.3
     2.228              -22.39          11.32          35.85          34.93          7.632         -17.85         -27.34         0.8973          117.3          110.9          102.0
     2.263              -22.23          11.35          35.85          34.84          7.738          -17.9         -27.47         0.4345          118.2          111.2          101.7
